<svg xmlns="http://www.w3.org/2000/svg" width="512" height="384" viewBox="0 0 512 384" version="1.1">
	<path d="M 72.117 26.168 C 67.251 27.679, 63.515 29.935, 56.394 35.663 C 48.340 42.141, 45.994 44.783, 39.371 54.838 C 22.138 81.001, 11.087 105.357, 9.108 121.538 C 8.298 128.157, 8.324 131.351, 9.214 134.319 C 10.756 139.467, 18.725 148.124, 25.478 151.988 C 28.415 153.668, 35.021 158.648, 40.159 163.056 C 45.296 167.463, 53.775 174.304, 59 178.258 C 64.225 182.213, 70.592 187.151, 73.148 189.232 C 75.704 191.313, 78.435 192.770, 79.217 192.470 C 80.600 191.940, 131.023 242.061, 153.255 266.067 C 158.620 271.861, 166.441 279.278, 170.634 282.550 C 174.827 285.823, 181.151 292.100, 184.688 296.500 C 194.514 308.725, 210.886 324.913, 224.605 335.967 C 240.080 348.436, 241.795 349.348, 248.705 348.775 C 255.006 348.252, 258.561 345.965, 261.717 340.406 C 264.537 335.440, 263.973 330.834, 259.496 322.256 L 256.237 316.013 261.318 320.256 C 264.113 322.590, 269.676 327.534, 273.682 331.243 C 277.687 334.951, 286.143 341.837, 292.472 346.543 C 304.805 355.714, 313.021 359.475, 318.437 358.429 C 325.796 357.007, 332.553 347.106, 331.764 338.899 C 330.930 330.216, 326.665 323.555, 308 301.787 L 303.500 296.539 314.500 304.986 C 320.550 309.632, 328.035 315.523, 331.134 318.077 C 338.306 323.988, 346.264 328.543, 352.185 330.127 C 363.418 333.131, 375.608 323.873, 377.422 310.960 C 378.782 301.281, 374.031 294.375, 351.600 273.423 C 326.802 250.260, 324.161 248.132, 291 224.563 C 276.893 214.537, 275.131 213.080, 277.055 213.036 C 277.910 213.016, 282.947 215.839, 288.246 219.309 C 293.546 222.779, 307.896 230.766, 320.134 237.059 C 341.211 247.896, 342.853 248.949, 351.219 257 C 364.929 270.195, 371.211 273.051, 378.300 269.312 C 380.628 268.084, 383.451 267.698, 388.658 267.896 C 395.921 268.173, 398.714 267.371, 402.521 263.916 C 404.498 262.122, 404.680 262.179, 410.953 266.545 C 418.057 271.488, 422.310 273.035, 426.626 272.243 C 433.680 270.949, 439.667 263.379, 438.515 257.213 C 437.413 251.318, 428.075 239.162, 411.573 222.141 L 402.500 212.782 410 218.054 C 420.065 225.129, 425.282 229.174, 435.173 237.567 C 439.753 241.454, 445.229 245.625, 447.341 246.837 C 455.700 251.632, 466.740 248.712, 471.598 240.423 C 474.364 235.703, 474.603 232.379, 472.533 227.424 C 470.708 223.057, 442.555 195.163, 431.500 186.768 C 427.100 183.427, 423.050 180.266, 422.500 179.744 C 421.950 179.222, 432.198 184.203, 445.273 190.813 C 471.204 203.923, 478.955 207, 486.044 207 C 492.202 207, 498.377 202.663, 501.153 196.387 C 503.042 192.116, 503.057 191.689, 501.483 186.949 C 498.940 179.293, 494.436 176.088, 444.735 146.561 C 439.364 143.370, 434.723 140.362, 434.423 139.875 C 434.122 139.388, 431.091 137.131, 427.688 134.859 C 424.285 132.587, 419.810 129.120, 417.744 127.155 L 413.988 123.583 425.176 121.711 C 446.482 118.147, 461 107.527, 461 95.506 C 461 91.136, 458.120 90.003, 443.376 88.574 C 427.920 87.075, 419.753 84.599, 415.180 80.026 C 413.620 78.466, 408.084 75.377, 402.878 73.161 C 397.671 70.945, 390.243 67.337, 386.371 65.142 C 382.499 62.948, 377.569 60.849, 375.415 60.478 C 373.262 60.107, 369.274 59.171, 366.554 58.397 C 363.646 57.571, 361.240 57.360, 360.714 57.886 C 360.188 58.412, 357.488 57.867, 354.160 56.563 C 339.689 50.893, 321.111 47.061, 307.885 47.018 C 303.999 47.006, 301.535 46.436, 299.885 45.169 C 297.116 43.042, 280.447 33.249, 274.290 30.132 C 269.623 27.769, 265.991 27.409, 264.262 29.138 C 263.635 29.765, 260.987 30.366, 258.377 30.475 C 254 30.657, 253.225 31.108, 248.418 36.273 C 242.772 42.339, 231.896 58.323, 227.472 67.058 C 225.956 70.051, 224.084 73.465, 223.312 74.644 L 221.909 76.788 212.205 73.243 C 200.876 69.105, 177.539 63.458, 167.674 62.467 C 163.892 62.087, 159.606 61.155, 158.149 60.395 C 156.692 59.634, 155.040 59.010, 154.477 59.006 C 153.915 59.003, 150.990 57.366, 147.977 55.368 C 144.965 53.370, 137.775 48.929, 132 45.499 C 95.193 23.638, 87.877 21.276, 72.117 26.168 M 383 196.500 C 384.292 197.875, 385.574 199, 385.849 199 C 386.124 199, 385.292 197.875, 384 196.500 C 382.708 195.125, 381.426 194, 381.151 194 C 380.876 194, 381.708 195.125, 383 196.500" stroke="none" fill="#000000" fill-rule="evenodd"/>
</svg>